<svg width="25" height="29" viewBox="0 0 25 29" fill="none" xmlns="http://www.w3.org/2000/svg">
<path d="M8.90517 12.515L2.86049 8.25823C4.94917 5.57928 7.93083 4.41764 9.16058 4.17169C7.73029 7.53174 8.84841 10.7745 9.58626 11.9759L8.90517 12.515Z" fill="#4285F4"/>
<path d="M5.35782 26.5058C-2.17957 20.4668 -0.147655 12.8461 1.81048 9.79069C2.04697 9.93258 3.58699 10.9939 7.85516 14.1043C6.47027 17.1465 8.43219 19.5908 9.58626 20.4327C9.23626 20.9057 7.90056 22.7825 5.35782 26.5058Z" fill="#FBBC04"/>
<path d="M11.3174 21.1422C15.9488 21.8233 17.4283 18.38 17.5891 16.5732C22.3851 16.3746 24.3716 13.1394 24.5986 12.9975C25.2797 15.0691 25.6203 21.1422 21.108 25.2287C15.8863 30.178 9.54842 28.7288 7.03217 27.3855C7.07947 27.3193 8.00273 25.9779 11.3174 21.1422Z" fill="#4285F4"/>
<circle cx="17.362" cy="7.63389" r="7.63389" fill="#FBBC04"/>
<path d="M20.2851 3.71762H19.008L14.4674 11.5785H15.7728L20.2851 3.71762Z" fill="white"/>
<path fill-rule="evenodd" clip-rule="evenodd" d="M19.6891 11.4083C20.7079 11.4083 21.5337 10.5824 21.5337 9.56364C21.5337 8.54489 20.7079 7.71902 19.6891 7.71902C18.6703 7.71902 17.8445 8.54489 17.8445 9.56364C17.8445 10.5824 18.6703 11.4083 19.6891 11.4083ZM19.6891 10.3866C20.1437 10.3866 20.5121 10.0182 20.5121 9.56365C20.5121 9.10912 20.1437 8.74066 19.6891 8.74066C19.2346 8.74066 18.8661 9.10912 18.8661 9.56365C18.8661 10.0182 19.2346 10.3866 19.6891 10.3866Z" fill="white"/>
<path fill-rule="evenodd" clip-rule="evenodd" d="M15.0918 7.54874C16.1105 7.54874 16.9364 6.72287 16.9364 5.70412C16.9364 4.68536 16.1105 3.8595 15.0918 3.8595C14.073 3.8595 13.2471 4.68536 13.2471 5.70412C13.2471 6.72287 14.073 7.54874 15.0918 7.54874ZM15.0918 6.5271C15.5463 6.5271 15.9147 6.15864 15.9147 5.70412C15.9147 5.2496 15.5463 4.88113 15.0918 4.88113C14.6372 4.88113 14.2688 5.2496 14.2688 5.70412C14.2688 6.15864 14.6372 6.5271 15.0918 6.5271Z" fill="white"/>
</svg>
