<svg width="21" height="22" viewBox="0 0 21 22" fill="none" xmlns="http://www.w3.org/2000/svg">
<g clip-path="url(#clip0)">
<path d="M16.9453 0.5C18.0106 0.5 18.9214 0.878215 19.6779 1.63464C20.4343 2.39107 20.8125 3.30192 20.8125 4.36719V17.2578C20.8125 18.3231 20.4343 19.2339 19.6779 19.9904C18.9214 20.7468 18.0106 21.125 16.9453 21.125H14.4209V13.1355H17.093L17.4958 10.0203H14.4209V8.03296C14.4209 7.53166 14.5261 7.15568 14.7365 6.90503C14.9468 6.65438 15.3564 6.52905 15.9651 6.52905L17.6033 6.51562V3.73608C17.0393 3.65552 16.2426 3.61523 15.2131 3.61523C13.9957 3.61523 13.0222 3.97331 12.2926 4.68945C11.563 5.4056 11.1982 6.41715 11.1982 7.72412V10.0203H8.5127V13.1355H11.1982V21.125H4.05469C2.98942 21.125 2.07857 20.7468 1.32214 19.9904C0.565715 19.2339 0.1875 18.3231 0.1875 17.2578V4.36719C0.1875 3.30192 0.565715 2.39107 1.32214 1.63464C2.07857 0.878215 2.98942 0.5 4.05469 0.5H16.9453Z" fill="#395A9A"/>
</g>
<defs>
<clipPath id="clip0">
<rect x="0.1875" y="0.5" width="20.625" height="20.625" fill="white"/>
</clipPath>
</defs>
</svg>
