<svg width="24" height="28" viewBox="0 0 24 28" fill="none" xmlns="http://www.w3.org/2000/svg">
<path d="M8.54896 12.0145L2.74607 7.92796C4.7512 5.35617 7.6136 4.24099 8.79416 4.00488C7.42108 7.23053 8.49448 10.3436 9.20281 11.4969L8.54896 12.0145Z" fill="#4285F4"/>
<path d="M5.14351 25.4456C-2.09239 19.6482 -0.141749 12.3323 1.73806 9.39912C1.96509 9.53534 3.44351 10.5542 7.54095 13.5401C6.21146 16.4607 8.0949 18.8072 9.20281 19.6155C8.8668 20.0695 7.58454 21.8712 5.14351 25.4456Z" fill="#FBBC04"/>
<path d="M10.8647 20.2966C15.3108 20.9504 16.7311 17.6448 16.8855 15.9103C21.4897 15.7196 23.3967 12.6139 23.6147 12.4776C24.2685 14.4664 24.5955 20.2966 20.2637 24.2196C15.2509 28.9709 9.16649 27.5797 6.75089 26.2902C6.79629 26.2266 7.68262 24.9389 10.8647 20.2966Z" fill="#4285F4"/>
<circle cx="16.6676" cy="7.32853" r="7.32853" fill="#FBBC04"/>
<path d="M19.4739 3.56885H18.2479L13.8889 11.1153H15.1421L19.4739 3.56885Z" fill="white"/>
<path fill-rule="evenodd" clip-rule="evenodd" d="M18.9014 10.9518C19.8795 10.9518 20.6723 10.159 20.6723 9.18099C20.6723 8.20299 19.8795 7.41016 18.9014 7.41016C17.9234 7.41016 17.1306 8.20299 17.1306 9.18099C17.1306 10.159 17.9234 10.9518 18.9014 10.9518ZM18.9016 9.97122C19.338 9.97122 19.6917 9.6175 19.6917 9.18116C19.6917 8.74482 19.338 8.39109 18.9016 8.39109C18.4653 8.39109 18.1116 8.74482 18.1116 9.18116C18.1116 9.6175 18.4653 9.97122 18.9016 9.97122Z" fill="white"/>
<path fill-rule="evenodd" clip-rule="evenodd" d="M14.4881 7.24675C15.4661 7.24675 16.259 6.45392 16.259 5.47591C16.259 4.49791 15.4661 3.70508 14.4881 3.70508C13.5101 3.70508 12.7173 4.49791 12.7173 5.47591C12.7173 6.45392 13.5101 7.24675 14.4881 7.24675ZM14.4881 6.26599C14.9245 6.26599 15.2782 5.91226 15.2782 5.47592C15.2782 5.03958 14.9245 4.68586 14.4881 4.68586C14.0518 4.68586 13.698 5.03958 13.698 5.47592C13.698 5.91226 14.0518 6.26599 14.4881 6.26599Z" fill="white"/>
</svg>
