<svg width="21" height="15" viewBox="0 0 21 15" fill="none" xmlns="http://www.w3.org/2000/svg">
<g clip-path="url(#clip0)">
<path d="M0.992004 0.133597C1.1567 0.0729565 1.33292 0.0349121 1.51915 0.0349121H19.4451C19.6313 0.0349121 19.8076 0.0729565 19.9722 0.133641L11.9405 7.65107C11.1229 8.41689 9.84163 8.41689 9.02374 7.65107L0.992004 0.133597ZM20.7403 13.4922C20.8794 13.2643 20.9643 12.9996 20.9643 12.7134V1.54426C20.9643 1.34143 20.9226 1.1485 20.8494 0.971639L13.3333 8.00634L20.7403 13.4922ZM12.6536 8.63215C12.0298 9.16312 11.2572 9.43241 10.4821 9.43241C9.70705 9.43241 8.93438 9.16339 8.31064 8.63215L0.924536 14.1023C1.10746 14.1796 1.30799 14.2228 1.51915 14.2228H19.4451C19.6563 14.2228 19.8568 14.1796 20.0397 14.1023L12.6536 8.63215ZM0.114874 0.971594C0.0416426 1.1485 0 1.34138 0 1.54426V12.7134C0 12.9996 0.0847596 13.2643 0.22394 13.4922L7.631 8.00634L0.114874 0.971594Z" fill="#E73E3E"/>
</g>
<defs>
<clipPath id="clip0">
<rect width="21" height="14.25" fill="white"/>
</clipPath>
</defs>
</svg>
