<svg width="22" height="22" viewBox="0 0 22 22" fill="none" xmlns="http://www.w3.org/2000/svg">
<g clip-path="url(#clip0)">
<path d="M21.0417 11.2629C21.0417 10.5477 20.9837 9.82861 20.86 9.125H10.936V13.1765H16.619C16.3832 14.4832 15.6254 15.6392 14.5159 16.3737V19.0026H17.9064C19.8974 17.1701 21.0417 14.4639 21.0417 11.2629Z" fill="#4285F4"/>
<path d="M10.936 21.5425C13.7736 21.5425 16.1667 20.6108 17.9102 19.0026L14.5198 16.3737C13.5765 17.0155 12.3587 17.3789 10.9399 17.3789C8.19502 17.3789 5.8677 15.5271 5.03265 13.0374H1.53394V15.7474C3.32002 19.3003 6.95791 21.5425 10.936 21.5425Z" fill="#34A853"/>
<path d="M5.02878 13.0374C4.58806 11.7307 4.58806 10.3157 5.02878 9.00903V6.29898H1.53393C0.0416669 9.27192 0.0416669 12.7745 1.53393 15.7474L5.02878 13.0374Z" fill="#FBBC04"/>
<path d="M10.936 4.66367C12.436 4.64047 13.8857 5.2049 14.9721 6.24099L17.9759 3.23712C16.0739 1.45104 13.5494 0.469079 10.936 0.500007C6.9579 0.500007 3.32002 2.74228 1.53394 6.29898L5.02878 9.00903C5.85997 6.51547 8.19115 4.66367 10.936 4.66367Z" fill="#EA4335"/>
</g>
<defs>
<clipPath id="clip0">
<rect x="0.416656" y="0.5" width="20.625" height="21.0425" fill="white"/>
</clipPath>
</defs>
</svg>
