<svg width="24" height="17" viewBox="0 0 24 17" fill="none" xmlns="http://www.w3.org/2000/svg">
<g clip-path="url(#clip0)">
<path d="M1.13372 0.15331C1.32194 0.0840066 1.52334 0.0405273 1.73617 0.0405273H22.223C22.4358 0.0405273 22.6372 0.0840066 22.8254 0.15336L13.6463 8.74471C12.7119 9.61993 11.2476 9.61993 10.3129 8.74471L1.13372 0.15331ZM23.7032 15.4203C23.8622 15.1598 23.9591 14.8573 23.9591 14.5302V1.76549C23.9591 1.53369 23.9116 1.3132 23.8279 1.11107L15.238 9.15074L23.7032 15.4203ZM14.4613 9.86594C13.7484 10.4728 12.8654 10.7805 11.9796 10.7805C11.0938 10.7805 10.2107 10.4731 9.49787 9.86594L1.05661 16.1176C1.26567 16.2059 1.49484 16.2553 1.73617 16.2553H22.223C22.4643 16.2553 22.6935 16.2059 22.9025 16.1176L14.4613 9.86594ZM0.131285 1.11102C0.0475915 1.3132 0 1.53364 0 1.76549V14.5302C0 14.8573 0.0968681 15.1598 0.255932 15.4203L8.72114 9.15074L0.131285 1.11102Z" fill="#E73E3E"/>
</g>
<defs>
<clipPath id="clip0">
<rect width="24" height="16.2857" fill="white"/>
</clipPath>
</defs>
</svg>
