<svg width="24" height="17" viewBox="0 0 24 17" fill="none" xmlns="http://www.w3.org/2000/svg">
<g clip-path="url(#clip0)">
<path d="M1.13372 0.153371C1.32194 0.0840677 1.52334 0.0405884 1.73617 0.0405884H22.223C22.4358 0.0405884 22.6372 0.0840676 22.8254 0.153421L13.6463 8.74477C12.7119 9.61999 11.2476 9.61999 10.3129 8.74477L1.13372 0.153371ZM23.7032 15.4204C23.8622 15.1599 23.9591 14.8573 23.9591 14.5303V1.76556C23.9591 1.53375 23.9116 1.31326 23.8279 1.11113L15.238 9.1508L23.7032 15.4204ZM14.4613 9.866C13.7484 10.4728 12.8654 10.7806 11.9796 10.7806C11.0938 10.7806 10.2107 10.4731 9.49787 9.866L1.05661 16.1176C1.26567 16.206 1.49484 16.2553 1.73617 16.2553H22.223C22.4643 16.2553 22.6935 16.206 22.9025 16.1176L14.4613 9.866ZM0.131285 1.11108C0.0475915 1.31326 0 1.5337 0 1.76556V14.5303C0 14.8573 0.0968681 15.1599 0.255932 15.4204L8.72114 9.1508L0.131285 1.11108Z" fill="#CD3D40"/>
</g>
<defs>
<clipPath id="clip0">
<rect width="24" height="16.2857" fill="white"/>
</clipPath>
</defs>
</svg>
