<svg width="20" height="20" viewBox="0 0 20 20" fill="none" xmlns="http://www.w3.org/2000/svg">
<g clip-path="url(#clip0)">
<path d="M15.625 0.5C16.6063 0.5 17.4454 0.848416 18.1423 1.54525C18.8391 2.24208 19.1875 3.08116 19.1875 4.0625V15.9375C19.1875 16.9188 18.8391 17.7579 18.1423 18.4548C17.4454 19.1516 16.6063 19.5 15.625 19.5H13.2995V12.14H15.7611L16.1322 9.27018H13.2995V7.43945C13.2995 6.97765 13.3964 6.63129 13.5902 6.40039C13.784 6.16949 14.1612 6.05404 14.722 6.05404L16.2311 6.04167V3.48112C15.7116 3.4069 14.9776 3.36979 14.0293 3.36979C12.9078 3.36979 12.011 3.69965 11.3389 4.35938C10.6668 5.0191 10.3307 5.95095 10.3307 7.15495V9.27018H7.85677V12.14H10.3307V19.5H3.75C2.76866 19.5 1.92958 19.1516 1.23275 18.4548C0.535916 17.7579 0.1875 16.9188 0.1875 15.9375V4.0625C0.1875 3.08116 0.535916 2.24208 1.23275 1.54525C1.92958 0.848416 2.76866 0.5 3.75 0.5H15.625Z" fill="#395A9A"/>
</g>
<defs>
<clipPath id="clip0">
<rect x="0.1875" y="0.5" width="19" height="19" fill="white"/>
</clipPath>
</defs>
</svg>
