<svg width="157" height="23" viewBox="0 0 157 23" fill="none" xmlns="http://www.w3.org/2000/svg">
<path d="M0.8 21.31C3.11 22.18 5.51 22.63 7.91 22.63C13.28 22.63 16.4 19.81 16.4 15.55C16.4 13.15 15.44 11.62 13.28 10.15C12.29 9.46 10.52 8.95 8.21 8.02C6.26 7.24 5.33 6.13 5.33 4.66C5.33 3.01 6.56 1.81 8.39 1.81C10.76 1.81 12.44 3.82 13.52 7.93H14.33V1.75C12.14 1.06 10.28 0.669999 8.63 0.669999C3.89 0.669999 0.71 3.58 0.71 7.51C0.71 9.04 1.19 10.39 2.15 11.47C3.38 12.88 4.97 13.45 6.62 14.17C9.62 15.49 11.36 16.09 11.36 18.43C11.36 20.32 10.16 21.49 8.24 21.49C5.3 21.49 2.93 18.82 1.76 13.69H0.8V21.31ZM23.7013 22.63L27.8713 14.2L32.4013 22.63L37.8913 10.75C38.4913 9.46 38.8513 8.62 40.3213 8.47V7.63H35.0713V8.47C36.1813 8.5 36.7513 8.86 36.7513 9.67C36.7513 10.03 36.5713 10.51 36.3313 11.08L34.6213 14.98L30.3313 7.09L26.2813 14.98L24.2413 10.6C24.0013 10.09 23.8813 9.7 23.8813 9.4C23.8813 8.74 24.3013 8.5 25.2313 8.47V7.63H15.3313V8.47C15.3613 8.47 15.4213 8.47 15.4513 8.47C16.5313 8.47 17.1313 9.22 17.8813 10.78L23.7013 22.63ZM44.4144 12.34C44.4144 9.46 45.1044 8.08 46.7844 8.08C48.0444 8.08 48.6744 8.95 48.6744 10.69C48.6744 12.31 47.8644 12.34 45.7644 12.34H44.4144ZM52.8744 19.57V18.19C52.0944 19.06 51.1644 19.45 50.0244 19.45C47.1144 19.45 44.5644 16.99 44.4444 13.39H52.9344C52.9344 9.43 50.4144 6.97 46.6644 6.97C44.4444 6.97 42.1344 8.14 40.9044 9.82C39.7344 11.38 39.1944 13.09 39.1944 15.04C39.1944 16.96 39.7644 18.64 40.9344 20.02C42.3444 21.7 44.3544 22.63 46.5744 22.63C49.0044 22.63 51.1944 21.58 52.8744 19.57ZM62.821 20.11C63.361 21.67 64.531 22.48 66.271 22.48C67.771 22.48 69.061 21.91 69.841 20.92V19.96C69.661 20.11 69.481 20.2 69.301 20.2C68.431 20.2 68.161 19.15 68.161 16.99V12.82C68.161 11.02 68.041 9.73 66.871 8.62C65.761 7.6 63.931 6.97 61.621 6.97C57.451 6.97 54.871 9.07 54.871 11.59C54.871 12.82 55.651 13.63 56.851 13.63C58.111 13.63 59.011 12.73 59.011 11.26C59.011 10.93 58.951 10.42 58.951 9.79C58.951 8.89 59.701 8.17 60.751 8.17C62.071 8.17 62.551 9.13 62.551 11.23V12.28C56.701 14.53 53.851 16.03 53.851 19C53.851 21.1 55.471 22.63 57.901 22.63C59.731 22.63 61.351 21.79 62.821 20.11ZM62.551 13.36V16.15C62.551 18.64 62.521 19.84 61.201 19.84C60.421 19.84 59.851 19.09 59.851 17.8C59.851 15.58 60.811 14.05 62.551 13.36ZM71.6377 8.74L71.4877 17.77C71.4877 17.83 71.4877 17.89 71.4877 17.95C71.4877 21.04 72.9877 22.63 75.7177 22.63C77.3677 22.63 78.9877 22.03 80.3377 20.83V19.93C79.9177 20.11 79.5277 20.23 79.1977 20.23C77.7877 20.23 77.1577 19 77.1577 16.48V8.74H80.3377L80.7877 7.21C80.0977 7.51 79.1677 7.63 77.9377 7.63C77.6677 7.63 77.4277 7.63 77.1577 7.63V1.45L69.5977 8.74H71.6377ZM91.1963 1.3H80.6963V2.14C82.5863 2.26 83.0363 2.86 83.0363 4.72V18.58C83.0363 20.44 82.5863 21.04 80.6963 21.16V22H91.9763V21.16C90.0863 21.04 89.6363 20.44 89.6363 18.58V13.33C90.6863 13.51 91.5863 13.6 92.3663 13.6C97.0763 13.6 99.9563 11.17 99.9563 7.57C99.9563 5.35 98.9363 3.49 97.0763 2.38C95.5763 1.48 93.6563 1.3 91.1963 1.3ZM89.6363 12.07V2.5C89.7863 2.5 89.9063 2.47 90.0563 2.47C92.4263 2.47 93.7163 4.24 93.7163 7.51C93.7163 10.54 92.4563 12.25 90.6563 12.25C90.3863 12.25 90.0563 12.19 89.6363 12.07ZM107.63 20.11C108.17 21.67 109.34 22.48 111.08 22.48C112.58 22.48 113.87 21.91 114.65 20.92V19.96C114.47 20.11 114.29 20.2 114.11 20.2C113.24 20.2 112.97 19.15 112.97 16.99V12.82C112.97 11.02 112.85 9.73 111.68 8.62C110.57 7.6 108.74 6.97 106.43 6.97C102.26 6.97 99.68 9.07 99.68 11.59C99.68 12.82 100.46 13.63 101.66 13.63C102.92 13.63 103.82 12.73 103.82 11.26C103.82 10.93 103.76 10.42 103.76 9.79C103.76 8.89 104.51 8.17 105.56 8.17C106.88 8.17 107.36 9.13 107.36 11.23V12.28C101.51 14.53 98.66 16.03 98.66 19C98.66 21.1 100.28 22.63 102.71 22.63C104.54 22.63 106.16 21.79 107.63 20.11ZM107.36 13.36V16.15C107.36 18.64 107.33 19.84 106.01 19.84C105.23 19.84 104.66 19.09 104.66 17.8C104.66 15.58 105.62 14.05 107.36 13.36ZM122.447 19.03V12.1C122.447 10.21 122.807 9.28 124.037 9.28C125.387 9.28 125.747 10.18 125.747 12.1V22H133.277V21.16C133.247 21.16 133.217 21.16 133.187 21.16C131.867 21.16 131.387 20.53 131.387 19.03V11.95C131.387 8.62 129.827 7 126.617 7C124.667 7 123.107 7.78 121.937 9.34V6.85C119.237 8.38 116.657 9.61 114.137 10.51L115.967 11.8C116.717 12.31 116.807 12.7 116.807 13.51V19.03C116.807 20.53 116.327 21.16 115.007 21.16C114.977 21.16 114.947 21.16 114.917 21.16V22H124.187V21.16C122.927 21.13 122.447 20.5 122.447 19.03ZM134.498 8.74L134.348 17.77C134.348 17.83 134.348 17.89 134.348 17.95C134.348 21.04 135.848 22.63 138.578 22.63C140.228 22.63 141.848 22.03 143.198 20.83V19.93C142.778 20.11 142.388 20.23 142.058 20.23C140.648 20.23 140.018 19 140.018 16.48V8.74H143.198L143.648 7.21C142.958 7.51 142.028 7.63 140.798 7.63C140.528 7.63 140.288 7.63 140.018 7.63V1.45L132.458 8.74H134.498ZM144.037 21.4C146.077 22.21 148.057 22.63 150.007 22.63C153.967 22.63 156.637 20.41 156.637 17.26C156.637 14.59 155.047 13.72 151.957 12.46C149.647 11.53 148.327 11.08 148.327 9.76C148.327 8.77 149.167 8.05 150.487 8.05C152.317 8.05 153.517 9.25 154.777 11.77H155.497V7.78C153.757 7.24 152.167 7 150.697 7C146.587 7 144.127 9.07 144.127 12.16C144.127 14.68 145.687 15.64 148.717 16.87C150.847 17.74 152.077 18.19 152.077 19.84C152.077 20.92 151.327 21.58 150.007 21.58C147.607 21.58 145.687 19.84 144.787 16.6H144.037V21.4Z" fill="#E73E3E"/>
</svg>
